<svg width="18" height="18" viewBox="0 0 18 18" fill="none" xmlns="http://www.w3.org/2000/svg">
<path d="M7.60826 4.97065C8.19821 3.4999 8.49319 2.76453 9.00044 2.76453C9.50768 2.76453 9.80266 3.4999 10.3926 4.97065L10.4201 5.03914C10.7534 5.87004 10.92 6.28549 11.2597 6.538C11.5993 6.79052 12.0451 6.83045 12.9368 6.91031L13.098 6.92474C14.5574 7.05544 15.2871 7.12079 15.4432 7.58503C15.5993 8.04927 15.0574 8.54227 13.9737 9.52829L13.612 9.85737C13.0633 10.3565 12.789 10.6061 12.6612 10.9332C12.6373 10.9942 12.6175 11.0567 12.6018 11.1203C12.5178 11.4613 12.5981 11.8234 12.7587 12.5475L12.8088 12.7728C13.104 14.1036 13.2516 14.769 12.9939 15.056C12.8976 15.1632 12.7724 15.2404 12.6333 15.2784C12.2612 15.3799 11.7328 14.9494 10.6761 14.0883C9.98221 13.5229 9.63527 13.2402 9.23694 13.1766C9.08026 13.1516 8.92061 13.1516 8.76393 13.1766C8.3656 13.2402 8.01866 13.5229 7.32478 14.0883C6.26807 14.9494 5.73971 15.3799 5.36756 15.2784C5.2285 15.2404 5.10331 15.1632 5.007 15.056C4.74924 14.769 4.89686 14.1036 5.19212 12.7728L5.24213 12.5475C5.40278 11.8234 5.48311 11.4613 5.39907 11.1203C5.38339 11.0567 5.36357 10.9942 5.33972 10.9332C5.21186 10.6061 4.93755 10.3565 4.38892 9.85737L4.02721 9.52829C2.94342 8.54227 2.40153 8.04927 2.55767 7.58503C2.7138 7.12079 3.44348 7.05544 4.90284 6.92474L5.06404 6.91031C5.95573 6.83045 6.40157 6.79052 6.74121 6.538C7.08085 6.28549 7.2475 5.87004 7.58079 5.03914L7.60826 4.97065Z" fill="#F8F8FB" stroke="#F8F8FB" stroke-width="1.4"/>
</svg>
