<?xml version="1.0" encoding="iso-8859-1"?>
<!-- Generator: Adobe Illustrator 19.0.0, SVG Export Plug-In . SVG Version: 6.00 Build 0)  -->
<svg version="1.1" id="Capa_1" xmlns="http://www.w3.org/2000/svg" xmlns:xlink="http://www.w3.org/1999/xlink" x="0px" y="0px"
	 viewBox="0 0 483.88 483.88" style="enable-background:new 0 0 483.88 483.88;" xml:space="preserve">
<g>
	<g>
		<g>
			<g>
				<path d="M118.225,464.3V20.5c1.4-22.9,24.2-21.8,30.8-16.4l325.6,221.9c17,14.7,6.2,29.8,0,32.9l-325.6,221.8
					C130.325,490.6,117.425,475.2,118.225,464.3z M158.325,58.5v366.7l270.2-182.9L158.325,58.5z"/>
			</g>
			<g>
				<path d="M20.625,483.8c-11.3,0-20.5-9.2-20.5-20.5V20.5c0-11.3,9.2-20.5,20.5-20.5s20.5,9.2,20.5,20.5v442.7
					C41.125,474.6,31.925,483.8,20.625,483.8z"/>
			</g>
		</g>
	</g>
</g>
<g>
</g>
<g>
</g>
<g>
</g>
<g>
</g>
<g>
</g>
<g>
</g>
<g>
</g>
<g>
</g>
<g>
</g>
<g>
</g>
<g>
</g>
<g>
</g>
<g>
</g>
<g>
</g>
<g>
</g>
</svg>
