<?xml version="1.0" encoding="iso-8859-1"?>
<!-- Generator: Adobe Illustrator 19.0.0, SVG Export Plug-In . SVG Version: 6.00 Build 0)  -->
<svg version="1.1" id="Layer_1" xmlns="http://www.w3.org/2000/svg" xmlns:xlink="http://www.w3.org/1999/xlink" x="0px" y="0px"
	 viewBox="0 0 480 480" style="enable-background:new 0 0 480 480;" xml:space="preserve">
<g>
	<g>
		<g>
			<path d="M343.21,267.743c20.809-25.018,52.255-62.826,52.255-108.277c0-43.072-15.225-83.071-42.87-112.627
				C324.345,16.634,285.414,0,242.977,0c-42.846,0-82.718,15.899-112.27,44.768C100.932,73.854,84.535,113.35,84.535,155.98
				c0,35.728,24.41,67.47,44.024,92.975c9.765,12.698,18.988,24.691,22.831,34.168c10.526,25.874-4.629,56.446-4.773,56.731
				c-1.08,2.114-1.337,4.504-0.827,6.753v45.817c0,5.523,4.477,10,10,10h4.776v38.023c0,5.523,4.477,10,10,10h7.388h15.859V470
				c0,5.523,4.477,10,10,10h77.575c5.522,0,10-4.477,10-10v-19.553h19.553c5.523,0,10-4.477,10-10v-38.023h4.776
				c5.522,0,10-4.477,10-10v-47.617c0.006-0.136,0.021-0.269,0.021-0.406c0-1.754-0.451-3.401-1.244-4.833
				c-5.1-10.946-15.042-40.919-3.532-56.58C334.17,278.611,338.36,273.575,343.21,267.743z M271.389,460h-57.575v-9.553h57.575V460z
				 M300.943,430.447L300.943,430.447h-15.859h-3.694h-77.575h-23.247v-28.023h120.375V430.447z M315.718,382.424h-4.776H170.567
				h-4.776v-28.023h149.927V382.424z M314.839,271.154c-14.153,19.258-8.915,46.676-3.643,63.248H265.53v-59.736l55.478-98.675
				c2.707-4.814,0.998-10.911-3.816-13.618c-4.811-2.706-10.911-0.999-13.617,3.816l-56.761,100.958
				c-0.841,1.497-1.283,3.184-1.283,4.901v62.354h-20.635v-62.354c0-1.713-0.44-3.397-1.278-4.892l-58.615-104.508
				c-2.702-4.817-8.796-6.532-13.613-3.83c-4.817,2.702-6.532,8.796-3.83,13.613l57.336,102.229v59.741h-34.765
				c4.476-14.335,8.604-37.142-0.21-58.806c-4.861-11.986-14.89-25.027-25.507-38.833c-18.692-24.306-39.878-51.856-39.878-80.783
				c0-76.25,60.811-135.98,138.442-135.98c75.53,0,132.488,59.957,132.488,139.466c0,38.221-27.53,71.32-47.632,95.488
				C322.983,260.785,318.402,266.293,314.839,271.154z"/>
			<path d="M293.977,140.716c-4.147-3.648-10.465-3.244-14.114,0.901l-18.968,21.556l-15.193-18.746
				c-1.807-2.23-4.485-3.576-7.353-3.695c-2.864-0.122-5.648,0.999-7.635,3.071l-18.942,19.759l-15.071-19.295
				c-3.399-4.353-9.684-5.126-14.036-1.726c-4.353,3.399-5.125,9.684-1.726,14.036l22.179,28.396
				c1.786,2.287,4.477,3.685,7.375,3.832c0.169,0.008,0.338,0.013,0.506,0.013c2.718,0,5.328-1.107,7.218-3.08l19.086-19.91
				l15.508,19.134c1.854,2.288,4.622,3.642,7.566,3.702c2.946,0.075,5.764-1.182,7.709-3.392l26.79-30.444
				C298.526,150.683,298.122,144.364,293.977,140.716z"/>
		</g>
	</g>
</g>
<g>
</g>
<g>
</g>
<g>
</g>
<g>
</g>
<g>
</g>
<g>
</g>
<g>
</g>
<g>
</g>
<g>
</g>
<g>
</g>
<g>
</g>
<g>
</g>
<g>
</g>
<g>
</g>
<g>
</g>
</svg>
