<svg width="30" height="30" viewBox="0 0 30 30" fill="none" xmlns="http://www.w3.org/2000/svg">
<path d="M18.5 5V4H17.5H12.5H11.5V5V5.25C11.5 5.26294 11.5 5.27608 11.5 5.28938C11.4999 5.48926 11.4997 5.72723 11.5272 5.93188C11.5604 6.17893 11.6493 6.52067 11.9393 6.81066C12.2293 7.10065 12.5711 7.18956 12.8181 7.22278C13.0228 7.25029 13.2607 7.25014 13.4606 7.25002C13.4739 7.25001 13.4871 7.25 13.5 7.25H16.5C16.5129 7.25 16.5261 7.25001 16.5394 7.25002C16.7393 7.25014 16.9772 7.25029 17.1819 7.22278C17.4289 7.18956 17.7707 7.10065 18.0607 6.81066C18.3507 6.52067 18.4396 6.17893 18.4728 5.93188C18.5003 5.72723 18.5001 5.48926 18.5 5.28938C18.5 5.27608 18.5 5.26295 18.5 5.25V5Z" stroke="#274C77" stroke-width="2"/>
<rect x="8.5" y="3.5" width="13" height="23" rx="1" stroke="#274C77" stroke-width="2"/>
<circle cx="15" cy="22.5" r="1.25" fill="#274C77"/>
</svg>
