<svg width="30" height="30" viewBox="0 0 30 30" fill="none" xmlns="http://www.w3.org/2000/svg">
<path d="M14 18.25H11.8799C11.8566 18.25 11.8333 18.25 11.8102 18.25C11.1662 18.2501 10.5749 18.2502 10.1118 18.1815C9.6151 18.1078 9.00914 17.9208 8.62963 17.3269M14 18.25L8.62963 17.3269M14 18.25V23.9799L14 24.033C13.9999 24.4321 13.9999 24.8117 14.0303 25.0942C14.0456 25.2369 14.0769 25.4507 14.1698 25.6586C14.2728 25.889 14.5127 26.2325 14.9811 26.3357C15.4495 26.4388 15.8116 26.2279 16.0018 26.0621C16.1735 25.9125 16.2917 25.7316 16.3656 25.6086C16.5118 25.365 16.6713 25.0205 16.8389 24.6583L16.8612 24.6101L20.8425 16.0104C20.8523 15.9892 20.8621 15.9682 20.8718 15.9471C21.1424 15.3628 21.3909 14.8262 21.5232 14.3771C21.665 13.8954 21.7499 13.267 21.3704 12.6731C20.9909 12.0792 20.3849 11.8922 19.8882 11.8185C19.4251 11.7498 18.8338 11.7499 18.1898 11.75C18.1667 11.75 18.1434 11.75 18.1201 11.75H16V6.02013C16 6.0024 16 5.9847 16 5.96704C16.0001 5.5679 16.0001 5.1883 15.9697 4.9058C15.9544 4.76307 15.9231 4.5493 15.8302 4.34138C15.7272 4.11098 15.4873 3.76749 15.0189 3.66432C14.5505 3.56116 14.1884 3.77206 13.9982 3.93788C13.8265 4.08752 13.7083 4.26837 13.6344 4.39144C13.4882 4.63503 13.3287 4.97952 13.1611 5.34174C13.1537 5.35777 13.1463 5.37384 13.1388 5.38994L9.15746 13.9896C9.14767 14.0108 9.13791 14.0318 9.12818 14.0529C8.85755 14.6372 8.60906 15.1738 8.47683 15.6229C8.33501 16.1046 8.25012 16.733 8.62963 17.3269M14 18.25L8.62963 17.3269M15.3753 5.38029C15.3753 5.38032 15.3747 5.38115 15.3735 5.38269C15.3747 5.38103 15.3753 5.38026 15.3753 5.38029ZM13.9745 5.07175C13.9745 5.07173 13.9747 5.07268 13.9751 5.0747C13.9747 5.07279 13.9745 5.07178 13.9745 5.07175ZM14.6247 24.6197C14.6247 24.6197 14.6253 24.6188 14.6266 24.6171C14.6253 24.6189 14.6247 24.6197 14.6247 24.6197ZM16.0255 24.9282C16.0255 24.9282 16.0253 24.9273 16.0249 24.9253C16.0254 24.9272 16.0255 24.9283 16.0255 24.9282Z" stroke="#274C77" stroke-width="2"/>
</svg>
