<svg width="30" height="30" viewBox="0 0 30 30" fill="none" xmlns="http://www.w3.org/2000/svg">
<path d="M17.0874 25.1936L17.6637 26.0109L17.0874 25.1936ZM17.5224 24.2053L18.5208 24.2616L17.5224 24.2053ZM17.4898 24.5817L18.4685 24.7871L17.4898 24.5817ZM12.5102 24.5817L13.4889 24.3764L12.5102 24.5817ZM12.9126 25.1936L13.4889 24.3764L12.9126 25.1936ZM10.6256 18.5928L11.2094 17.781L10.6256 18.5928ZM11.3718 19.4691L10.4517 19.8608L11.3718 19.4691ZM11.1335 19.0036L10.3527 19.6284L11.1335 19.0036ZM19.3744 18.5928L18.7906 17.781L19.3744 18.5928ZM18.6282 19.4691L19.5483 19.8608L18.6282 19.4691ZM18.8665 19.0036L19.6473 19.6284L18.8665 19.0036ZM21.5 12.5C21.5 14.6743 20.4334 16.5994 18.7906 17.781L19.9583 19.4047C22.1013 17.8634 23.5 15.345 23.5 12.5H21.5ZM15 6C18.5899 6 21.5 8.91015 21.5 12.5H23.5C23.5 7.80558 19.6944 4 15 4V6ZM8.5 12.5C8.5 8.91015 11.4101 6 15 6V4C10.3056 4 6.5 7.80558 6.5 12.5H8.5ZM11.2094 17.781C9.56656 16.5994 8.5 14.6743 8.5 12.5H6.5C6.5 15.345 7.89875 17.8634 10.0417 19.4047L11.2094 17.781ZM13.476 24.1491C13.3775 22.4005 12.976 20.6846 12.2919 19.0775L10.4517 19.8608C11.0453 21.2554 11.3937 22.7444 11.4792 24.2616L13.476 24.1491ZM16.3416 24.4611C15.4971 24.8834 14.5029 24.8834 13.6584 24.4611L12.7639 26.25C14.1716 26.9538 15.8284 26.9538 17.2361 26.25L16.3416 24.4611ZM17.7081 19.0775C17.024 20.6846 16.6225 22.4005 16.524 24.1491L18.5208 24.2616C18.6063 22.7444 18.9547 21.2554 19.5483 19.8608L17.7081 19.0775ZM17.2361 26.25C17.3616 26.1872 17.525 26.1087 17.6637 26.0109L16.5111 24.3764C16.5283 24.3643 16.5337 24.3629 16.5036 24.379C16.4707 24.3965 16.4253 24.4193 16.3416 24.4611L17.2361 26.25ZM16.524 24.1491C16.518 24.2548 16.5145 24.3166 16.5108 24.3617C16.5072 24.4072 16.5059 24.4015 16.5111 24.3764L18.4685 24.7871C18.5036 24.6198 18.5118 24.4209 18.5208 24.2616L16.524 24.1491ZM17.6637 26.0109C18.0884 25.7114 18.3618 25.2957 18.4685 24.7871L16.5111 24.3764C16.5086 24.3887 16.5067 24.3929 16.5073 24.3914C16.508 24.3896 16.5102 24.3847 16.5143 24.3785C16.5184 24.3723 16.522 24.3683 16.5234 24.3669C16.5246 24.3657 16.5214 24.3691 16.5111 24.3764L17.6637 26.0109ZM11.4792 24.2616C11.4882 24.4209 11.4964 24.6198 11.5315 24.7871L13.4889 24.3764C13.4941 24.4015 13.4928 24.4072 13.4892 24.3617C13.4855 24.3166 13.482 24.2548 13.476 24.1491L11.4792 24.2616ZM13.6584 24.4611C13.5747 24.4193 13.5293 24.3965 13.4964 24.379C13.4663 24.3629 13.4717 24.3643 13.4889 24.3764L12.3363 26.0109C12.475 26.1087 12.6384 26.1872 12.7639 26.25L13.6584 24.4611ZM11.5315 24.7871C11.6382 25.2957 11.9116 25.7114 12.3363 26.0109L13.4889 24.3764C13.4786 24.3691 13.4754 24.3657 13.4766 24.3669C13.478 24.3683 13.4816 24.3723 13.4857 24.3785C13.4898 24.3847 13.492 24.3896 13.4927 24.3914C13.4933 24.3929 13.4914 24.3887 13.4889 24.3764L11.5315 24.7871ZM10.0417 19.4047C10.1898 19.5112 10.274 19.5721 10.3335 19.619C10.3911 19.6645 10.3795 19.6618 10.3527 19.6284L11.9143 18.3788C11.7207 18.1368 11.4315 17.9407 11.2094 17.781L10.0417 19.4047ZM12.2919 19.0775C12.2087 18.882 12.1042 18.6161 11.9143 18.3788L10.3527 19.6284C10.3377 19.6097 10.3353 19.6 10.3501 19.6299C10.3587 19.6474 10.3705 19.6728 10.3881 19.7127C10.4057 19.753 10.4256 19.7996 10.4517 19.8608L12.2919 19.0775ZM18.7906 17.781C18.5685 17.9407 18.2793 18.1368 18.0857 18.3788L19.6473 19.6284C19.6205 19.6618 19.6089 19.6645 19.6665 19.619C19.726 19.5721 19.8102 19.5112 19.9583 19.4047L18.7906 17.781ZM19.5483 19.8608C19.5744 19.7996 19.5943 19.753 19.6119 19.7127C19.6295 19.6728 19.6413 19.6474 19.6499 19.6299C19.6647 19.6 19.6623 19.6097 19.6473 19.6284L18.0857 18.3788C17.8958 18.6161 17.7913 18.882 17.7081 19.0775L19.5483 19.8608Z" fill="#274C77"/>
<path d="M18.125 20.625V20.625C16.1189 21.4274 13.8811 21.4274 11.875 20.625V20.625" stroke="#274C77" stroke-width="2"/>
</svg>
