<svg width="30" height="30" viewBox="0 0 30 30" fill="none" xmlns="http://www.w3.org/2000/svg">
<path d="M17.6703 4.20177L16.6753 4.30128V4.30128L17.6703 4.20177ZM17.324 2.81532L16.5951 3.5L16.5951 3.5L17.324 2.81532ZM18.3408 6.62471L17.8513 7.49668L18.3408 6.62471ZM18.56 6.71549L18.8304 5.75274L18.8304 5.75274L18.56 6.71549ZM20.7474 5.47637L21.3806 6.25033V6.25033L20.7474 5.47637ZM21.9726 4.74092L22.0038 5.74043L21.9726 4.74092ZM22.1344 4.74899L22.2649 3.75755L22.2649 3.75755L22.1344 4.74899ZM23.2803 5.6027L22.5732 6.30981L22.5732 6.30981L23.2803 5.6027ZM24.3972 6.71958L25.1043 6.01247L25.1043 6.01247L24.3972 6.71958ZM25.2509 7.86563L26.2424 7.73516V7.73515L25.2509 7.86563ZM25.259 8.0273L26.2585 8.05849V8.05847L25.259 8.0273ZM24.5235 9.25262L23.7496 8.61939V8.61939L24.5235 9.25262ZM23.2843 11.4402L24.247 11.1697L24.247 11.1697L23.2843 11.4402ZM23.375 11.6592L24.247 11.1697L24.247 11.1697L23.375 11.6592ZM25.7982 12.3298L25.6987 13.3249H25.6987L25.7982 12.3298ZM27.1847 12.6762L26.5 13.405L26.5 13.405L27.1847 12.6762ZM27.2933 12.7962L28.0866 12.1874L28.0866 12.1874L27.2933 12.7962ZM27.2934 17.2037L26.5 16.595L26.5 16.595L27.2934 17.2037ZM27.1846 17.3239L26.5 16.595L26.5 16.595L27.1846 17.3239ZM25.7983 17.6702L25.8978 18.6652H25.8978L25.7983 17.6702ZM23.3756 18.3405L22.5038 17.8508L22.5037 17.8508L23.3756 18.3405ZM23.2847 18.56L22.3219 18.2897L22.3219 18.2898L23.2847 18.56ZM24.5237 20.747L25.2977 20.1137L24.5237 20.747ZM25.2591 21.972L24.2596 22.0033V22.0033L25.2591 21.972ZM25.251 22.134L26.2424 22.2647L26.2424 22.2646L25.251 22.134ZM24.3974 23.2797L25.1045 23.9868H25.1045L24.3974 23.2797ZM23.2804 24.3967L22.5733 23.6896H22.5732L23.2804 24.3967ZM22.1344 25.2505L22.0039 24.259H22.0039L22.1344 25.2505ZM21.9726 25.2585L21.9414 26.258H21.9414L21.9726 25.2585ZM20.7474 24.5231L20.1142 25.297V25.297L20.7474 24.5231ZM18.56 23.2839L18.8304 24.2467L18.8305 24.2467L18.56 23.2839ZM18.3409 23.3747L17.8513 22.5027L17.8513 22.5028L18.3409 23.3747ZM17.6703 25.7979L16.6753 25.6984V25.6984L17.6703 25.7979ZM17.3239 27.1848L16.5951 26.5L16.5951 26.5L17.3239 27.1848ZM17.204 27.2933L16.5951 26.5L16.5951 26.5L17.204 27.2933ZM12.7963 27.2933L13.4051 26.5L13.4051 26.5L12.7963 27.2933ZM12.6763 27.1847L13.4051 26.5L13.4051 26.5L12.6763 27.1847ZM12.3299 25.7981L13.325 25.6986L12.3299 25.7981ZM11.6593 23.3749L11.1698 24.247L11.1698 24.247L11.6593 23.3749ZM11.4404 23.2843L11.1698 24.247L11.1698 24.247L11.4404 23.2843ZM9.25263 24.5235L8.61939 23.7496L8.61939 23.7496L9.25263 24.5235ZM8.02716 25.2591L8.05828 26.2586H8.05829L8.02716 25.2591ZM7.86562 25.251L7.7352 26.2425L7.73522 26.2425L7.86562 25.251ZM6.71945 24.3972L6.01234 25.1043L6.01234 25.1043L6.71945 24.3972ZM5.60269 23.2804L4.89558 23.9875H4.89558L5.60269 23.2804ZM4.74891 22.1344L5.74036 22.0039H5.74036L4.74891 22.1344ZM4.74084 21.9727L5.74036 22.0039H5.74036L4.74084 21.9727ZM5.47636 20.7474L6.25032 21.3806H6.25032L5.47636 20.7474ZM6.71555 18.5598L5.75283 18.8303L5.75283 18.8303L6.71555 18.5598ZM6.62483 18.3408L7.49684 17.8513L7.49683 17.8513L6.62483 18.3408ZM4.20178 17.6702L4.10228 18.6652H4.10228L4.20178 17.6702ZM2.8153 17.3238L3.5 16.595L3.5 16.595L2.8153 17.3238ZM2.70666 17.2038L1.91332 17.8126L1.91333 17.8126L2.70666 17.2038ZM2.70674 12.7961L3.5 13.405L3.5 13.405L2.70674 12.7961ZM2.81521 12.6763L2.13041 11.9475L2.13041 11.9475L2.81521 12.6763ZM4.20194 12.3298L4.10244 11.3348H4.10243L4.20194 12.3298ZM6.62541 11.659L5.75331 11.1697H5.75331L6.62541 11.659ZM6.71599 11.4403L5.75331 11.1697L5.75331 11.1697L6.71599 11.4403ZM5.47658 9.25228L6.25054 8.61904L6.25054 8.61904L5.47658 9.25228ZM4.74089 8.02656L5.74041 7.99555V7.99555L4.74089 8.02656ZM4.74894 7.86525L3.75746 7.73494L3.75746 7.73494L4.74894 7.86525ZM5.6029 6.71885L6.31 7.42596L6.31001 7.42596L5.6029 6.71885ZM6.7195 5.60225L6.0124 4.89514L6.0124 4.89514L6.7195 5.60225ZM7.86568 4.74841L7.9961 5.73986L7.9961 5.73986L7.86568 4.74841ZM8.02722 4.74035L7.9961 5.73986L7.9961 5.73986L8.02722 4.74035ZM9.25278 5.476L8.61954 6.24995L9.25278 5.476ZM11.4402 6.71525L11.1699 5.75248V5.75248L11.4402 6.71525ZM11.6595 6.62442L12.1491 7.49636L12.1491 7.49636L11.6595 6.62442ZM12.33 4.20167L13.325 4.30117V4.30117L12.33 4.20167ZM12.6762 2.81537L11.9473 2.13073L11.9473 2.13073L12.6762 2.81537ZM12.7964 2.70661L12.1877 1.91321L12.1877 1.91321L12.7964 2.70661ZM17.2039 2.70665L16.5951 3.5L16.5951 3.5L17.2039 2.70665ZM18.6653 4.10227C18.6297 3.74607 18.5961 3.39396 18.533 3.10395C18.465 2.79144 18.3415 2.43796 18.0528 2.13063L16.5951 3.5C16.5389 3.44008 16.5506 3.40015 16.5787 3.52918C16.6117 3.68069 16.635 3.89812 16.6753 4.30128L18.6653 4.10227ZM18.8304 5.75274C18.9805 5.83702 18.9378 5.9473 18.8629 5.62996C18.789 5.31698 18.7406 4.85485 18.6653 4.10227L16.6753 4.30128C16.7446 4.99417 16.8046 5.61615 16.9164 6.08959C17.0272 6.55867 17.2475 7.15768 17.8513 7.49668L18.8304 5.75274ZM18.8304 5.75274L17.8513 7.49668C17.9897 7.57438 18.1368 7.63532 18.2896 7.67823L18.8304 5.75274ZM20.1141 4.70241C19.5288 5.18135 19.1678 5.47391 18.8942 5.64296C18.6169 5.81436 18.6647 5.70619 18.8304 5.75274L18.2896 7.67823C18.9562 7.86548 19.5356 7.5977 19.9456 7.34433C20.3594 7.08861 20.8417 6.69127 21.3806 6.25033L20.1141 4.70241ZM21.9413 3.74141C21.5199 3.75458 21.1827 3.91724 20.9136 4.09013C20.6639 4.25058 20.3912 4.47574 20.1141 4.70241L21.3806 6.25033C21.6942 5.99377 21.8644 5.85651 21.9948 5.77269C22.1059 5.70131 22.086 5.73786 22.0038 5.74043L21.9413 3.74141ZM22.2649 3.75755C22.1577 3.74342 22.0494 3.73803 21.9413 3.74141L22.0038 5.74043H22.0038L22.2649 3.75755ZM23.9874 4.8956C23.7343 4.64248 23.4853 4.39129 23.2528 4.2068C23.0023 4.008 22.6829 3.81259 22.2649 3.75755L22.0038 5.74043C21.9223 5.7297 21.9061 5.69135 22.0096 5.77342C22.131 5.86981 22.2867 6.02332 22.5732 6.30981L23.9874 4.8956ZM25.1043 6.01247L23.9874 4.89559L22.5732 6.30981L23.6901 7.42668L25.1043 6.01247ZM26.2424 7.73515C26.1874 7.31707 25.992 6.99768 25.7931 6.74714C25.6086 6.51464 25.3574 6.26561 25.1043 6.01247L23.6901 7.42668C23.9766 7.7132 24.1301 7.86891 24.2265 7.99038C24.3086 8.09381 24.2702 8.07762 24.2595 7.99612L26.2424 7.73515ZM26.2585 8.05847C26.2619 7.95044 26.2565 7.84231 26.2424 7.73516L24.2595 7.99611L24.2595 7.99614L26.2585 8.05847ZM25.2975 9.88586C25.5242 9.60879 25.7493 9.336 25.9098 9.0863C26.0827 8.81722 26.2454 8.47997 26.2585 8.05849L24.2595 7.99611C24.2621 7.91395 24.2986 7.89402 24.2272 8.00511C24.1434 8.13557 24.0061 8.30579 23.7496 8.61939L25.2975 9.88586ZM24.247 11.1697C24.2936 11.3355 24.1854 11.3833 24.3568 11.1059C24.5259 10.8323 24.8185 10.4713 25.2975 9.88586L23.7496 8.61939C23.3086 9.15837 22.9112 9.64068 22.6554 10.0545C22.4021 10.4646 22.1343 11.044 22.3216 11.7107L24.247 11.1697ZM24.247 11.1697L24.247 11.1697L22.3216 11.7107C22.3645 11.8634 22.4254 12.0104 22.503 12.1487L24.247 11.1697ZM25.8977 11.3348C25.145 11.2595 24.6828 11.2112 24.3698 11.1372C24.0525 11.0623 24.1628 11.0196 24.247 11.1697L22.503 12.1487C22.842 12.7526 23.4411 12.9729 23.9102 13.0837C24.3837 13.1955 25.0057 13.2556 25.6987 13.3249L25.8977 11.3348ZM27.8695 11.9474C27.5621 11.6586 27.2086 11.5352 26.8961 11.4672C26.606 11.4041 26.2539 11.3704 25.8977 11.3348L25.6987 13.3249C26.1019 13.3652 26.3193 13.3885 26.4708 13.4214C26.5999 13.4495 26.5599 13.4613 26.5 13.405L27.8695 11.9474ZM28.0866 12.1874C28.0208 12.1016 27.9482 12.0214 27.8694 11.9474L26.5 13.405L26.5 13.405L28.0866 12.1874ZM28.5 14.2103C28.5 13.8523 28.5016 13.4986 28.4676 13.2037C28.431 12.8859 28.3434 12.5219 28.0866 12.1874L26.5 13.405C26.45 13.3398 26.4656 13.3012 26.4807 13.4324C26.4985 13.5864 26.5 13.8051 26.5 14.2103H28.5ZM28.5 15.7899V14.2103H26.5V15.7899H28.5ZM28.0868 17.8124C28.3434 17.4779 28.4311 17.114 28.4676 16.7963C28.5016 16.5014 28.5 16.1478 28.5 15.7899H26.5C26.5 16.195 26.4985 16.4136 26.4807 16.5676C26.4656 16.6988 26.45 16.6602 26.5 16.595L28.0868 17.8124ZM27.8693 18.0528C27.9482 17.9787 28.0209 17.8983 28.0868 17.8124L26.5 16.595L26.5 16.595L27.8693 18.0528ZM25.8978 18.6652C26.254 18.6296 26.606 18.5959 26.896 18.5328C27.2085 18.4649 27.562 18.3415 27.8693 18.0528L26.5 16.595C26.5599 16.5387 26.5999 16.5505 26.4708 16.5786C26.3193 16.6115 26.1019 16.6348 25.6988 16.6751L25.8978 18.6652ZM24.2475 18.8302C24.1632 18.9803 24.053 18.9376 24.3703 18.8627C24.6833 18.7888 25.1453 18.7405 25.8978 18.6652L25.6988 16.6751C25.006 16.7444 24.3841 16.8045 23.9107 16.9162C23.4417 17.027 22.8428 17.2472 22.5038 17.8508L24.2475 18.8302ZM24.2475 18.8302L24.2475 18.8302L22.5037 17.8508C22.4259 17.9894 22.3649 18.1367 22.3219 18.2897L24.2475 18.8302ZM25.2977 20.1137C24.8188 19.5285 24.5263 19.1676 24.3573 18.8941C24.1859 18.6168 24.294 18.6645 24.2475 18.8302L22.3219 18.2898C22.1348 18.9563 22.4026 19.5355 22.6559 19.9455C22.9116 20.3592 23.3089 20.8414 23.7498 21.3802L25.2977 20.1137ZM26.2586 21.9406C26.2454 21.5192 26.0827 21.1821 25.9098 20.9131C25.7494 20.6635 25.5243 20.3907 25.2977 20.1137L23.7498 21.3802C24.0063 21.6937 24.1435 21.8639 24.2273 21.9943C24.2987 22.1054 24.2621 22.0855 24.2596 22.0033L26.2586 21.9406ZM26.2424 22.2646C26.2566 22.1572 26.262 22.0489 26.2586 21.9406L24.2596 22.0033V22.0033L26.2424 22.2646ZM25.1045 23.9868C25.3576 23.7337 25.6087 23.4848 25.7932 23.2523C25.9919 23.0019 26.1873 22.6826 26.2424 22.2647L24.2596 22.0033C24.2703 21.9218 24.3086 21.9057 24.2266 22.0091C24.1302 22.1305 23.9767 22.2862 23.6903 22.5726L25.1045 23.9868ZM23.9875 25.1038L25.1045 23.9868L23.6903 22.5726L22.5733 23.6896L23.9875 25.1038ZM22.265 26.2419C22.683 26.1868 23.0024 25.9914 23.2529 25.7926C23.4853 25.6081 23.7343 25.357 23.9875 25.1038L22.5732 23.6896C22.2868 23.9761 22.1311 24.1296 22.0096 24.226C21.9062 24.3081 21.9224 24.2697 22.0039 24.259L22.265 26.2419ZM21.9414 26.258C22.0495 26.2614 22.1577 26.256 22.265 26.2419L22.0039 24.259H22.0039L21.9414 26.258ZM20.1142 25.297C20.3912 25.5237 20.664 25.7489 20.9137 25.9093C21.1827 26.0822 21.5199 26.2449 21.9414 26.258L22.0039 24.259C22.086 24.2616 22.106 24.2981 21.9949 24.2267C21.8644 24.1429 21.6942 24.0057 21.3807 23.7491L20.1142 25.297ZM18.8305 24.2467C18.6647 24.2932 18.6169 24.1851 18.8943 24.3565C19.1679 24.5255 19.5288 24.8181 20.1142 25.297L21.3807 23.7491C20.8417 23.3082 20.3595 22.9108 19.9457 22.6551C19.5356 22.4017 18.9563 22.134 18.2896 22.3212L18.8305 24.2467ZM18.8304 24.2467V24.2467L18.2896 22.3212C18.1368 22.3641 17.9897 22.4251 17.8513 22.5027L18.8304 24.2467ZM18.6654 25.8974C18.7406 25.1448 18.789 24.6826 18.8629 24.3695C18.9379 24.0521 18.9806 24.1624 18.8304 24.2467L17.8513 22.5028C17.2475 22.8418 17.0272 23.4408 16.9164 23.9099C16.8047 24.3834 16.7446 25.0054 16.6753 25.6984L18.6654 25.8974ZM18.0526 27.8696C18.3415 27.5622 18.4649 27.2086 18.533 26.8961C18.5961 26.606 18.6297 26.2538 18.6654 25.8974L16.6753 25.6984C16.635 26.1017 16.6117 26.3192 16.5787 26.4708C16.5506 26.5999 16.5388 26.5599 16.5951 26.5L18.0526 27.8696ZM17.8129 28.0865C17.8985 28.0208 17.9787 27.9482 18.0526 27.8696L16.5951 26.5L16.5951 26.5L17.8129 28.0865ZM15.7897 28.5C16.1478 28.5 16.5015 28.5015 16.7965 28.4676C17.1143 28.431 17.4783 28.3433 17.8129 28.0865L16.5951 26.5C16.6604 26.4499 16.6989 26.4656 16.5677 26.4807C16.4137 26.4985 16.195 26.5 15.7897 26.5V28.5ZM14.2105 28.5H15.7897V26.5H14.2105V28.5ZM12.1875 28.0866C12.522 28.3434 12.8861 28.431 13.2038 28.4676C13.4987 28.5015 13.8525 28.5 14.2105 28.5V26.5C13.8053 26.5 13.5866 26.4985 13.4325 26.4807C13.3013 26.4656 13.3399 26.4499 13.4051 26.5L12.1875 28.0866ZM11.9475 27.8695C12.0215 27.9482 12.1018 28.0208 12.1875 28.0866L13.4051 26.5L13.4051 26.5L11.9475 27.8695ZM11.3349 25.8977C11.3705 26.2539 11.4042 26.606 11.4673 26.8961C11.5353 27.2086 11.6588 27.5621 11.9475 27.8695L13.4051 26.5C13.4614 26.5599 13.4497 26.5999 13.4216 26.4708C13.3886 26.3193 13.3653 26.1018 13.325 25.6986L11.3349 25.8977ZM11.1698 24.247C11.0197 24.1627 11.0624 24.0524 11.1373 24.3697C11.2113 24.6828 11.2596 25.145 11.3349 25.8977L13.325 25.6986C13.2557 25.0056 13.1956 24.3836 13.0838 23.9101C12.973 23.4409 12.7527 22.8418 12.1487 22.5029L11.1698 24.247ZM11.1698 24.247L11.1698 24.247L12.1487 22.5029C12.0105 22.4253 11.8635 22.3644 11.7109 22.3215L11.1698 24.247ZM9.88587 25.2975C10.4713 24.8185 10.8324 24.5258 11.106 24.3568C11.3834 24.1853 11.3356 24.2935 11.1698 24.247L11.7109 22.3215C11.0442 22.1342 10.4647 22.402 10.0547 22.6554C9.64077 22.9111 9.15843 23.3085 8.61939 23.7496L9.88587 25.2975ZM8.05829 26.2586C8.47981 26.2455 8.8171 26.0828 9.08621 25.9099C9.33594 25.7494 9.60876 25.5242 9.88587 25.2975L8.61939 23.7496C8.30576 24.0062 8.13551 24.1435 8.00504 24.2273C7.89394 24.2987 7.91387 24.2621 7.99604 24.2596L8.05829 26.2586ZM7.73522 26.2425C7.84228 26.2566 7.95032 26.262 8.05828 26.2586L7.99605 24.2596L7.99603 24.2596L7.73522 26.2425ZM6.01234 25.1043C6.26551 25.3575 6.51456 25.6087 6.74709 25.7932C6.99765 25.9921 7.31708 26.1875 7.7352 26.2425L7.99605 24.2596C8.07756 24.2703 8.09375 24.3087 7.99031 24.2266C7.86883 24.1302 7.71309 23.9766 7.42655 23.6901L6.01234 25.1043ZM4.89558 23.9875L6.01234 25.1043L7.42655 23.6901L6.30979 22.5733L4.89558 23.9875ZM3.75746 22.2648C3.81248 22.6829 4.0079 23.0023 4.20672 23.2529C4.39122 23.4854 4.64244 23.7344 4.89558 23.9875L6.30979 22.5733C6.02328 22.2868 5.86975 22.1311 5.77336 22.0096C5.69127 21.9062 5.72963 21.9224 5.74036 22.0039L3.75746 22.2648ZM3.74133 21.9415C3.73796 22.0496 3.74335 22.1577 3.75746 22.2648L5.74036 22.0039V22.0039L3.74133 21.9415ZM4.7024 20.1141C4.4757 20.3912 4.25051 20.664 4.09005 20.9137C3.91715 21.1828 3.75448 21.52 3.74133 21.9415L5.74036 22.0039C5.73779 22.0861 5.70124 22.106 5.77262 21.9949C5.85645 21.8644 5.99373 21.6942 6.25032 21.3806L4.7024 20.1141ZM5.75283 18.8303C5.70626 18.6645 5.81444 18.6167 5.64303 18.8941C5.47397 19.1677 5.18138 19.5287 4.7024 20.1141L6.25032 21.3806C6.6913 20.8416 7.08868 20.3593 7.34441 19.9455C7.59779 19.5354 7.86559 18.956 7.67828 18.2893L5.75283 18.8303ZM5.75283 18.8303L5.75283 18.8303L7.67828 18.2893C7.63538 18.1366 7.57447 17.9896 7.49684 17.8513L5.75283 18.8303ZM4.10228 18.6652C4.8549 18.7405 5.31705 18.7888 5.63005 18.8628C5.94739 18.9377 5.83709 18.9804 5.75283 18.8303L7.49683 17.8513C7.15785 17.2474 6.55881 17.0271 6.08969 16.9163C5.61623 16.8045 4.99421 16.7444 4.30128 16.6751L4.10228 18.6652ZM2.1306 18.0527C2.43793 18.3414 2.79141 18.4648 3.10393 18.5328C3.39396 18.5959 3.74607 18.6296 4.10228 18.6652L4.30128 16.6751C3.89812 16.6348 3.68069 16.6115 3.52917 16.5786C3.40015 16.5505 3.44009 16.5387 3.5 16.595L2.1306 18.0527ZM1.91333 17.8126C1.97914 17.8983 2.0518 17.9786 2.1306 18.0527L3.5 16.595L3.5 16.595L1.91333 17.8126ZM1.5 15.7897C1.5 16.1477 1.49845 16.5014 1.53239 16.7963C1.56896 17.114 1.65662 17.478 1.91332 17.8126L3.5 16.595C3.55005 16.6602 3.53437 16.6988 3.51927 16.5676C3.50155 16.4136 3.5 16.1949 3.5 15.7897H1.5ZM1.5 14.2104V15.7897H3.5V14.2104H1.5ZM1.91348 12.1872C1.65668 12.5218 1.56899 12.8859 1.5324 13.2037C1.49845 13.4986 1.5 13.8524 1.5 14.2104H3.5C3.5 13.8052 3.50155 13.5865 3.51928 13.4324C3.53438 13.3012 3.55006 13.3398 3.5 13.405L1.91348 12.1872ZM2.13041 11.9475C2.05175 12.0214 1.9792 12.1016 1.91348 12.1872L3.5 13.405L3.5 13.405L2.13041 11.9475ZM4.10243 11.3348C3.74615 11.3704 3.39397 11.4041 3.1039 11.4672C2.79132 11.5352 2.43777 11.6587 2.13041 11.9475L3.5 13.405C3.44008 13.4613 3.40013 13.4495 3.52918 13.4215C3.68072 13.3885 3.89819 13.3652 4.30144 13.3248L4.10243 11.3348ZM5.75331 11.1697C5.83756 11.0195 5.9479 11.0622 5.63051 11.1372C5.31746 11.2111 4.85521 11.2595 4.10244 11.3348L4.30144 13.3248C4.99451 13.2555 5.61666 13.1955 6.0902 13.0836C6.55941 12.9728 7.15856 12.7524 7.4975 12.1484L5.75331 11.1697ZM5.75331 11.1697L5.75331 11.1697L7.4975 12.1484C7.57499 12.0103 7.6358 11.8634 7.67866 11.711L5.75331 11.1697ZM4.70262 9.88552C5.18171 10.4711 5.47439 10.8322 5.64348 11.1058C5.81493 11.3833 5.7067 11.3355 5.75331 11.1697L7.67866 11.711C7.86614 11.0442 7.5983 10.4646 7.34488 10.0545C7.0891 9.64057 6.69163 9.15815 6.25054 8.61904L4.70262 9.88552ZM3.74137 8.05756C3.75445 8.47917 3.91715 8.81653 4.0901 9.08569C4.25059 9.33548 4.47585 9.60835 4.70262 9.88552L6.25054 8.61904C5.99387 8.30534 5.85655 8.13506 5.77269 8.00455C5.70129 7.89342 5.73786 7.91336 5.74041 7.99555L3.74137 8.05756ZM3.75746 7.73494C3.74341 7.84187 3.73803 7.94976 3.74137 8.05756L5.74041 7.99555V7.99555L3.75746 7.73494ZM4.89579 6.01175C4.64258 6.26496 4.3913 6.51406 4.20675 6.74663C4.00788 6.99724 3.81243 7.31673 3.75746 7.73494L5.74041 7.99555C5.7297 8.07708 5.69132 8.09328 5.77342 7.98982C5.86984 7.86831 6.02341 7.71255 6.31 7.42596L4.89579 6.01175ZM6.0124 4.89514L4.89579 6.01175L6.31001 7.42596L7.42661 6.30935L6.0124 4.89514ZM7.73526 3.75695C7.31713 3.81195 6.99771 4.00738 6.74714 4.20621C6.51461 4.39074 6.26556 4.64197 6.0124 4.89514L7.42661 6.30936C7.71315 6.02281 7.86888 5.86927 7.99036 5.77287C8.09381 5.69078 8.07761 5.72914 7.9961 5.73986L7.73526 3.75695ZM8.05834 3.74083C7.95039 3.73747 7.84234 3.74286 7.73526 3.75695L7.9961 5.73986L7.9961 5.73986L8.05834 3.74083ZM9.88602 4.70204C9.60888 4.47529 9.33604 4.25006 9.0863 4.08958C8.81719 3.91666 8.47988 3.75396 8.05834 3.74083L7.9961 5.73986C7.91391 5.73731 7.89398 5.70074 8.00511 5.77215C8.13561 5.856 8.30588 5.99332 8.61954 6.24995L9.88602 4.70204ZM11.1699 5.75248C11.3356 5.70594 11.3834 5.81411 11.106 5.64267C10.8324 5.4736 10.4714 5.181 9.88602 4.70204L8.61954 6.24995C9.15852 6.69093 9.64079 7.08828 10.0546 7.34402C10.4646 7.59738 11.0439 7.86521 11.7106 7.67801L11.1699 5.75248ZM11.1699 5.75248H11.1699L11.7106 7.67801C11.8635 7.63508 12.0107 7.5741 12.1491 7.49636L11.1699 5.75248ZM11.3349 4.10217C11.2597 4.85468 11.2113 5.31676 11.1374 5.62971C11.0625 5.94702 11.0198 5.83676 11.1699 5.75248L12.1491 7.49636C12.7529 7.15734 12.9731 6.55838 13.0839 6.08933C13.1957 5.61593 13.2557 4.994 13.325 4.30117L11.3349 4.10217ZM11.9473 2.13073C11.6587 2.43804 11.5353 2.79149 11.4673 3.10396C11.4042 3.39395 11.3705 3.74601 11.3349 4.10217L13.325 4.30117C13.3653 3.89806 13.3886 3.68067 13.4216 3.52917C13.4496 3.40016 13.4614 3.44009 13.4051 3.5L11.9473 2.13073ZM12.1877 1.91321C12.1018 1.9791 12.0214 2.05184 11.9473 2.13073L13.4051 3.5L13.4051 3.5L12.1877 1.91321ZM14.2103 1.5C13.8524 1.5 13.4987 1.49845 13.2039 1.53238C12.8862 1.56894 12.5222 1.65657 12.1877 1.91321L13.4051 3.5C13.3399 3.55003 13.3013 3.53436 13.4325 3.51927C13.5865 3.50155 13.8052 3.5 14.2103 3.5V1.5ZM15.7899 1.5H14.2103V3.5H15.7899V1.5ZM17.8127 1.9133C17.4781 1.65661 17.1141 1.56895 16.7964 1.53239C16.5016 1.49845 16.1479 1.5 15.7899 1.5V3.5C16.1951 3.5 16.4137 3.50155 16.5678 3.51927C16.6989 3.53437 16.6604 3.55004 16.5951 3.5L17.8127 1.9133ZM18.0528 2.13064C17.9788 2.05181 17.8985 1.97913 17.8127 1.91329L16.5951 3.5L16.5951 3.5L18.0528 2.13064ZM19.0001 15C19.0001 17.2091 17.2092 19 15.0001 19V21C18.3138 21 21.0001 18.3137 21.0001 15H19.0001ZM15.0001 11C17.2092 11 19.0001 12.7909 19.0001 15H21.0001C21.0001 11.6863 18.3138 9 15.0001 9V11ZM11.0001 15C11.0001 12.7909 12.7909 11 15.0001 11V9C11.6864 9 9.00007 11.6863 9.00007 15H11.0001ZM15.0001 19C12.7909 19 11.0001 17.2091 11.0001 15H9.00007C9.00007 18.3137 11.6864 21 15.0001 21V19Z" fill="#274C77"/>
</svg>
