<svg width="30" height="30" viewBox="0 0 30 30" fill="none" xmlns="http://www.w3.org/2000/svg">
<path d="M12.2499 6.75C12.2499 5.64543 13.1454 4.75 14.2499 4.75V2.75C12.0408 2.75 10.2499 4.54086 10.2499 6.75H12.2499ZM12.2499 14.5V6.75H10.2499V14.5H12.2499ZM9.75 20C9.75 18.4333 10.435 17.0279 11.5251 16.0645L10.2006 14.5659C8.6992 15.8928 7.75 17.8362 7.75 20H9.75ZM15 25.25C12.1005 25.25 9.75 22.8995 9.75 20H7.75C7.75 24.0041 10.9959 27.25 15 27.25V25.25ZM20.25 20C20.25 22.8995 17.8995 25.25 15 25.25V27.25C19.0041 27.25 22.25 24.0041 22.25 20H20.25ZM18.4748 16.0644C19.565 17.0278 20.25 18.4333 20.25 20H22.25C22.25 17.8361 21.3007 15.8927 19.7992 14.5658L18.4748 16.0644ZM17.7499 6.75V14.4999H19.7499V6.75H17.7499ZM15.7499 4.75C16.8545 4.75 17.7499 5.64543 17.7499 6.75H19.7499C19.7499 4.54086 17.9591 2.75 15.7499 2.75V4.75ZM14.2499 4.75H15.7499V2.75H14.2499V4.75ZM19.7992 14.5658C19.7748 14.5441 19.7609 14.5235 19.7544 14.5101C19.7485 14.4978 19.7499 14.4949 19.7499 14.4999H17.7499C17.7499 15.1422 18.0572 15.6954 18.4748 16.0644L19.7992 14.5658ZM10.2499 14.5C10.2499 14.495 10.2514 14.4979 10.2454 14.5102C10.2389 14.5236 10.2251 14.5443 10.2006 14.5659L11.5251 16.0645C11.9426 15.6955 12.2499 15.1423 12.2499 14.5H10.2499Z" fill="#274C77"/>
<circle cx="15" cy="20" r="2.75" stroke="#274C77" stroke-width="2"/>
</svg>
