<svg width="25" height="25" viewBox="0 0 25 25" fill="none" xmlns="http://www.w3.org/2000/svg">
<path d="M22.917 12.5L23.6979 13.1247C23.99 12.7595 23.99 12.2405 23.6979 11.8753L22.917 12.5ZM13.542 11.5C12.9897 11.5 12.542 11.9477 12.542 12.5C12.542 13.0523 12.9897 13.5 13.542 13.5L13.542 11.5ZM19.5312 18.333L23.6979 13.1247L22.1361 11.8753L17.9695 17.0836L19.5312 18.333ZM23.6979 11.8753L19.5312 6.66697L17.9695 7.91636L22.1361 13.1247L23.6979 11.8753ZM22.917 11.5L13.542 11.5L13.542 13.5L22.917 13.5L22.917 11.5Z" fill="#E7ECEF"/>
<path d="M14.583 16.5292L14.583 17.4448C14.583 19.0632 14.583 19.8723 14.109 20.4318C13.6351 20.9913 12.8369 21.1243 11.2406 21.3904L9.0694 21.7523C5.8263 22.2928 4.20476 22.563 3.14388 21.6643C2.08301 20.7656 2.08301 19.1217 2.08301 15.8339L2.08301 9.1661C2.08301 5.87827 2.08301 4.23435 3.14388 3.33566C4.20476 2.43696 5.82631 2.70722 9.0694 3.24773L11.2406 3.6096C12.8369 3.87566 13.6351 4.00868 14.109 4.56817C14.583 5.12766 14.583 5.93684 14.583 7.55518L14.583 8.26462" stroke="#E7ECEF" stroke-width="2" stroke-linecap="round"/>
</svg>
