<svg width="26" height="26" viewBox="0 0 26 26" fill="none" xmlns="http://www.w3.org/2000/svg">
<path d="M4.3356 13.2783C4.3356 11.6903 4.3356 10.8964 4.82891 10.4031C5.32221 9.90976 6.11617 9.90976 7.70409 9.90976H17.8096C19.3975 9.90976 20.1914 9.90976 20.6847 10.4031C21.1781 10.8964 21.1781 11.6903 21.1781 13.2782V17.4889C21.1781 19.8707 21.1781 21.0617 20.4381 21.8016C19.6981 22.5416 18.5072 22.5416 16.1253 22.5416H9.38834C7.00646 22.5416 5.81551 22.5416 5.07556 21.8016C4.3356 21.0617 4.3356 19.8707 4.3356 17.4889V13.2783Z" stroke="#516F91" stroke-width="1.68424"/>
<path d="M16.9674 8.85711V7.80445C16.9674 5.479 15.0823 3.59384 12.7568 3.59384V3.59384C10.4314 3.59384 8.5462 5.479 8.5462 7.80445V8.85711" stroke="#516F91" stroke-width="1.68424" stroke-linecap="round"/>
<circle cx="12.7568" cy="16.2257" r="2.10531" fill="#516F91"/>
</svg>
